<?xml version="1.0"?>
<svg version="1.1" xmlns="http://www.w3.org/2000/svg" width="400px" height="70px" style=""><path fill="#4a0522" d="M41.92578125,58.984375l-7.6953125,0l-12.421875-21.6015625l-0.17578125,0q0.37109375,5.72265625,0.37109375,8.1640625l0,13.4375l-5.41015625,0l0-28.5546875l7.63671875,0l12.40234375,21.38671875l0.13671875,0q-0.29296875-5.56640625-0.29296875-7.87109375l0-13.515625l5.44921875,0l0,28.5546875z M56.1400390625,48.02734375q0,3.2421875,1.064453125,4.90234375t3.466796875,1.66015625q2.3828125,0,3.427734375-1.650390625t1.044921875-4.912109375q0-3.2421875-1.0546875-4.86328125t-3.45703125-1.62109375q-2.3828125,0-3.4375,1.611328125t-1.0546875,4.873046875z M71.2376953125,48.02734375q0,5.33203125-2.8125,8.33984375t-7.83203125,3.0078125q-3.14453125,0-5.546875-1.376953125t-3.69140625-3.955078125t-1.2890625-6.015625q0-5.3515625,2.79296875-8.3203125t7.8515625-2.96875q3.14453125,0,5.546875,1.3671875t3.69140625,3.92578125t1.2890625,5.99609375z M99.065234375,58.984375l-5.95703125,0l0-12.75390625q0-2.36328125-0.83984375-3.544921875t-2.67578125-1.181640625q-2.5,0-3.61328125,1.669921875t-1.11328125,5.537109375l0,10.2734375l-5.95703125,0l0-21.8359375l4.55078125,0l0.80078125,2.79296875l0.33203125,0q0.99609375-1.58203125,2.744140625-2.392578125t3.974609375-0.810546875q3.80859375,0,5.78125,2.060546875t1.97265625,5.947265625l0,14.23828125z M123.1818359375,52.5q0,3.359375-2.333984375,5.1171875t-6.982421875,1.7578125q-2.3828125,0-4.0625-0.322265625t-3.14453125-0.947265625l0-4.921875q1.66015625,0.78125,3.740234375,1.30859375t3.662109375,0.52734375q3.2421875,0,3.2421875-1.875q0-0.703125-0.4296875-1.142578125t-1.484375-0.99609375t-2.8125-1.298828125q-2.51953125-1.0546875-3.701171875-1.953125t-1.71875-2.060546875t-0.537109375-2.861328125q0-2.91015625,2.255859375-4.501953125t6.396484375-1.591796875q3.9453125,0,7.67578125,1.71875l-1.796875,4.296875q-1.640625-0.703125-3.06640625-1.15234375t-2.91015625-0.44921875q-2.63671875,0-2.63671875,1.42578125q0,0.80078125,0.849609375,1.38671875t3.720703125,1.73828125q2.55859375,1.03515625,3.75,1.93359375t1.7578125,2.0703125t0.56640625,2.79296875z M135.32578125,48.02734375q0,3.2421875,1.064453125,4.90234375t3.466796875,1.66015625q2.3828125,0,3.427734375-1.650390625t1.044921875-4.912109375q0-3.2421875-1.0546875-4.86328125t-3.45703125-1.62109375q-2.3828125,0-3.4375,1.611328125t-1.0546875,4.873046875z M150.4234375,48.02734375q0,5.33203125-2.8125,8.33984375t-7.83203125,3.0078125q-3.14453125,0-5.546875-1.376953125t-3.69140625-3.955078125t-1.2890625-6.015625q0-5.3515625,2.79296875-8.3203125t7.8515625-2.96875q3.14453125,0,5.546875,1.3671875t3.69140625,3.92578125t1.2890625,5.99609375z M171.703515625,58.984375l0-28.5546875l6.0546875,0l0,28.5546875l-6.0546875,0z M205.1755859375,58.984375l-1.6796875-7.63671875l-2.265625-9.6484375l-0.13671875,0l-3.984375,17.28515625l-6.40625,0l-6.2109375-21.8359375l5.9375,0l2.51953125,9.66796875q0.60546875,2.59765625,1.23046875,7.16796875l0.1171875,0q0.078125-1.484375,0.68359375-4.70703125l0.3125-1.66015625l2.6953125-10.46875l6.5625,0l2.55859375,10.46875q0.078125,0.4296875,0.244140625,1.26953125t0.322265625,1.787109375t0.283203125,1.85546875t0.146484375,1.455078125l0.1171875,0q0.17578125-1.40625,0.625-3.857421875t0.64453125-3.310546875l2.6171875-9.66796875l5.83984375,0l-6.2890625,21.8359375l-6.484375,0z M233.25703125,40.9765625q-1.89453125,0-2.96875,1.201171875t-1.23046875,3.408203125l8.359375,0q-0.0390625-2.20703125-1.15234375-3.408203125t-3.0078125-1.201171875z M234.096875,59.375q-5.2734375,0-8.2421875-2.91015625t-2.96875-8.2421875q0-5.48828125,2.744140625-8.486328125t7.587890625-2.998046875q4.62890625,0,7.20703125,2.63671875t2.578125,7.28515625l0,2.890625l-14.08203125,0q0.09765625,2.5390625,1.50390625,3.96484375t3.9453125,1.42578125q1.97265625,0,3.73046875-0.41015625t3.671875-1.30859375l0,4.609375q-1.5625,0.78125-3.33984375,1.162109375t-4.3359375,0.380859375z M257.5103515625,59.375q-3.84765625,0-6.044921875-2.98828125t-2.197265625-8.28125q0-5.37109375,2.236328125-8.369140625t6.162109375-2.998046875q4.12109375,0,6.2890625,3.203125l0.1953125,0q-0.44921875-2.44140625-0.44921875-4.35546875l0-6.9921875l5.9765625,0l0,30.390625l-4.5703125,0l-1.15234375-2.83203125l-0.25390625,0q-2.03125,3.22265625-6.19140625,3.22265625z M259.6001953125,54.62890625q2.28515625,0,3.349609375-1.328125t1.162109375-4.51171875l0-0.64453125q0-3.515625-1.083984375-5.0390625t-3.525390625-1.5234375q-1.9921875,0-3.095703125,1.689453125t-1.103515625,4.912109375t1.11328125,4.833984375t3.18359375,1.611328125z M278.404296875,31.50390625q0-2.91015625,3.2421875-2.91015625t3.2421875,2.91015625q0,1.38671875-0.810546875,2.158203125t-2.431640625,0.771484375q-3.2421875,0-3.2421875-2.9296875z M284.615234375,58.984375l-5.95703125,0l0-21.8359375l5.95703125,0l0,21.8359375z M313.7708984375,58.984375l-5.95703125,0l0-12.75390625q0-2.36328125-0.83984375-3.544921875t-2.67578125-1.181640625q-2.5,0-3.61328125,1.669921875t-1.11328125,5.537109375l0,10.2734375l-5.95703125,0l0-21.8359375l4.55078125,0l0.80078125,2.79296875l0.33203125,0q0.99609375-1.58203125,2.744140625-2.392578125t3.974609375-0.810546875q3.80859375,0,5.78125,2.060546875t1.97265625,5.947265625l0,14.23828125z M327.39921875,48.02734375q0,3.2421875,1.064453125,4.90234375t3.466796875,1.66015625q2.3828125,0,3.427734375-1.650390625t1.044921875-4.912109375q0-3.2421875-1.0546875-4.86328125t-3.45703125-1.62109375q-2.3828125,0-3.4375,1.611328125t-1.0546875,4.873046875z M342.496875,48.02734375q0,5.33203125-2.8125,8.33984375t-7.83203125,3.0078125q-3.14453125,0-5.546875-1.376953125t-3.69140625-3.955078125t-1.2890625-6.015625q0-5.3515625,2.79296875-8.3203125t7.8515625-2.96875q3.14453125,0,5.546875,1.3671875t3.69140625,3.92578125t1.2890625,5.99609375z M362.3166015625,36.73828125q3.8671875,0,6.0546875,3.017578125t2.1875,8.271484375q0,5.41015625-2.255859375,8.37890625t-6.142578125,2.96875q-3.84765625,0-6.03515625-2.79296875l-0.41015625,0l-0.99609375,2.40234375l-4.55078125,0l0-30.390625l5.95703125,0l0,7.0703125q0,1.34765625-0.234375,4.31640625l0.234375,0q2.08984375-3.2421875,6.19140625-3.2421875z M360.4025390625,41.50390625q-2.20703125,0-3.22265625,1.357421875t-1.0546875,4.482421875l0,0.64453125q0,3.515625,1.044921875,5.0390625t3.310546875,1.5234375q1.8359375,0,2.919921875-1.689453125t1.083984375-4.912109375t-1.09375-4.833984375t-2.98828125-1.611328125z M377.976171875,31.50390625q0-2.91015625,3.2421875-2.91015625t3.2421875,2.91015625q0,1.38671875-0.810546875,2.158203125t-2.431640625,0.771484375q-3.2421875,0-3.2421875-2.9296875z M384.187109375,58.984375l-5.95703125,0l0-21.8359375l5.95703125,0l0,21.8359375z"/><path fill="#" d=""/></svg>
